<?xml version="1.0" encoding="UTF-8"?>
<svg xmlns="http://www.w3.org/2000/svg" xmlns:xlink="http://www.w3.org/1999/xlink" width="71.25pt" height="71.25pt" viewBox="0 0 71.25 71.25" version="1.2">
<defs>
<clipPath id="clip1">
  <path d="M 22 30 L 50 30 L 50 69.765625 L 22 69.765625 Z M 22 30 "/>
</clipPath>
<clipPath id="clip2">
  <path d="M 6.441406 29 L 18 29 L 18 37 L 6.441406 37 Z M 6.441406 29 "/>
</clipPath>
<clipPath id="clip3">
  <path d="M 54 33 L 63.554688 33 L 63.554688 39 L 54 39 Z M 54 33 "/>
</clipPath>
<clipPath id="clip4">
  <path d="M 20 55 L 25 55 L 25 60 L 20 60 Z M 20 55 "/>
</clipPath>
<clipPath id="clip5">
  <path d="M 19.257812 56.0625 L 23.375 54.363281 L 25.640625 59.851562 L 21.523438 61.550781 Z M 19.257812 56.0625 "/>
</clipPath>
<clipPath id="clip6">
  <path d="M 19.257812 56.0625 L 23.375 54.363281 L 25.640625 59.851562 L 21.523438 61.550781 Z M 19.257812 56.0625 "/>
</clipPath>
<clipPath id="clip7">
  <path d="M 20 55 L 25 55 L 25 61 L 20 61 Z M 20 55 "/>
</clipPath>
<clipPath id="clip8">
  <path d="M 19.257812 56.0625 L 23.375 54.363281 L 25.640625 59.851562 L 21.523438 61.550781 Z M 19.257812 56.0625 "/>
</clipPath>
<clipPath id="clip9">
  <path d="M 19.257812 56.0625 L 23.375 54.363281 L 25.640625 59.851562 L 21.523438 61.550781 Z M 19.257812 56.0625 "/>
</clipPath>
<clipPath id="clip10">
  <path d="M 52 50 L 57 50 L 57 56 L 52 56 Z M 52 50 "/>
</clipPath>
<clipPath id="clip11">
  <path d="M 52.320312 50.074219 L 56.769531 50.269531 L 56.507812 56.203125 L 52.058594 56.003906 Z M 52.320312 50.074219 "/>
</clipPath>
<clipPath id="clip12">
  <path d="M 52.320312 50.074219 L 56.769531 50.269531 L 56.507812 56.203125 L 52.058594 56.003906 Z M 52.320312 50.074219 "/>
</clipPath>
<clipPath id="clip13">
  <path d="M 53 50 L 56 50 L 56 57 L 53 57 Z M 53 50 "/>
</clipPath>
<clipPath id="clip14">
  <path d="M 52.320312 50.074219 L 56.769531 50.269531 L 56.507812 56.203125 L 52.058594 56.003906 Z M 52.320312 50.074219 "/>
</clipPath>
<clipPath id="clip15">
  <path d="M 52.320312 50.074219 L 56.769531 50.269531 L 56.507812 56.203125 L 52.058594 56.003906 Z M 52.320312 50.074219 "/>
</clipPath>
<clipPath id="clip16">
  <path d="M 48 63 L 52 63 L 52 70 L 48 70 Z M 48 63 "/>
</clipPath>
<clipPath id="clip17">
  <path d="M 48.117188 63.710938 L 52.519531 64.382812 L 51.621094 70.253906 L 47.21875 69.578125 Z M 48.117188 63.710938 "/>
</clipPath>
<clipPath id="clip18">
  <path d="M 48.117188 63.710938 L 52.519531 64.382812 L 51.621094 70.253906 L 47.21875 69.578125 Z M 48.117188 63.710938 "/>
</clipPath>
<clipPath id="clip19">
  <path d="M 49 64 L 51 64 L 51 70.507812 L 49 70.507812 Z M 49 64 "/>
</clipPath>
<clipPath id="clip20">
  <path d="M 48.117188 63.710938 L 52.519531 64.382812 L 51.621094 70.253906 L 47.21875 69.578125 Z M 48.117188 63.710938 "/>
</clipPath>
<clipPath id="clip21">
  <path d="M 48.117188 63.710938 L 52.519531 64.382812 L 51.621094 70.253906 L 47.21875 69.578125 Z M 48.117188 63.710938 "/>
</clipPath>
<clipPath id="clip22">
  <path d="M 5 47 L 9 47 L 9 53 L 5 53 Z M 5 47 "/>
</clipPath>
<clipPath id="clip23">
  <path d="M 6.347656 46.867188 L 10.070312 49.308594 L 6.816406 54.273438 L 3.089844 51.832031 Z M 6.347656 46.867188 "/>
</clipPath>
<clipPath id="clip24">
  <path d="M 6.347656 46.867188 L 10.070312 49.308594 L 6.816406 54.273438 L 3.089844 51.832031 Z M 6.347656 46.867188 "/>
</clipPath>
<clipPath id="clip25">
  <path d="M 5 47 L 8 47 L 8 54 L 5 54 Z M 5 47 "/>
</clipPath>
<clipPath id="clip26">
  <path d="M 6.347656 46.867188 L 10.070312 49.308594 L 6.816406 54.273438 L 3.089844 51.832031 Z M 6.347656 46.867188 "/>
</clipPath>
<clipPath id="clip27">
  <path d="M 6.347656 46.867188 L 10.070312 49.308594 L 6.816406 54.273438 L 3.089844 51.832031 Z M 6.347656 46.867188 "/>
</clipPath>
<clipPath id="clip28">
  <path d="M 61 46 L 66 46 L 66 51 L 61 51 Z M 61 46 "/>
</clipPath>
<clipPath id="clip29">
  <path d="M 60.296875 47.074219 L 64.257812 45.039062 L 66.96875 50.320312 L 63.011719 52.355469 Z M 60.296875 47.074219 "/>
</clipPath>
<clipPath id="clip30">
  <path d="M 60.296875 47.074219 L 64.257812 45.039062 L 66.96875 50.320312 L 63.011719 52.355469 Z M 60.296875 47.074219 "/>
</clipPath>
<clipPath id="clip31">
  <path d="M 61 46 L 67 46 L 67 51 L 61 51 Z M 61 46 "/>
</clipPath>
<clipPath id="clip32">
  <path d="M 60.296875 47.074219 L 64.257812 45.039062 L 66.96875 50.320312 L 63.011719 52.355469 Z M 60.296875 47.074219 "/>
</clipPath>
<clipPath id="clip33">
  <path d="M 60.296875 47.074219 L 64.257812 45.039062 L 66.96875 50.320312 L 63.011719 52.355469 Z M 60.296875 47.074219 "/>
</clipPath>
</defs>
<g id="surface1">
<path style=" stroke:none;fill-rule:nonzero;fill:rgb(28.239441%,60.389709%,22.749329%);fill-opacity:1;" d="M 55.777344 18.777344 C 55.433594 20.960938 57.328125 22.617188 57.328125 22.617188 C 57.328125 22.617188 59.628906 21.648438 59.972656 19.433594 C 60.320312 17.21875 58.40625 15.703125 58.40625 15.703125 C 58.40625 15.703125 56.117188 16.589844 55.777344 18.777344 "/>
<path style=" stroke:none;fill-rule:nonzero;fill:rgb(42.749023%,78.039551%,25.878906%);fill-opacity:1;" d="M 54.484375 11.640625 C 54.140625 13.828125 56.035156 15.480469 56.035156 15.480469 C 56.035156 15.480469 58.335938 14.511719 58.683594 12.300781 C 59.03125 10.082031 57.117188 8.566406 57.117188 8.566406 C 57.117188 8.566406 54.824219 9.453125 54.484375 11.640625 "/>
<g clip-path="url(#clip1)" clip-rule="nonzero">
<path style=" stroke:none;fill-rule:nonzero;fill:rgb(16.468811%,40.388489%,21.569824%);fill-opacity:1;" d="M 22.253906 39.339844 C 22.253906 39.339844 30.03125 45.8125 30.394531 54.800781 C 30.757812 63.785156 29.0625 69.796875 29.0625 69.796875 L 40.273438 69.796875 C 40.273438 69.796875 35.910156 62.269531 38.636719 52.429688 C 41.363281 42.59375 46.511719 38.097656 49.179688 36.824219 L 48.027344 36.15625 C 48.027344 36.15625 43.726562 38.523438 41.058594 41.5625 C 38.394531 44.597656 37.007812 44.964844 36.609375 39.195312 C 36.195312 33.242188 36.195312 30.386719 36.195312 30.386719 L 34.5 30.386719 C 34.5 30.386719 34.328125 39.980469 31.722656 42.53125 C 29.113281 45.082031 27.050781 41.046875 22.972656 38.160156 L 22.253906 39.339844 "/>
</g>
<path style=" stroke:none;fill-rule:nonzero;fill:rgb(16.468811%,40.388489%,21.569824%);fill-opacity:1;" d="M 30.875 30.695312 C 30.875 35.5 26.269531 38.402344 26.269531 38.402344 C 26.269531 38.402344 21.660156 35.558594 21.660156 30.695312 C 21.660156 25.835938 26.269531 23.226562 26.269531 23.226562 C 26.269531 23.226562 30.875 25.894531 30.875 30.695312 "/>
<path style=" stroke:none;fill-rule:nonzero;fill:rgb(58.039856%,83.139038%,32.548523%);fill-opacity:1;" d="M 33.492188 19.296875 C 32.890625 22.480469 29.46875 23.820312 29.46875 23.820312 C 29.46875 23.820312 26.773438 21.355469 27.382812 18.132812 C 27.992188 14.910156 31.375 13.765625 31.375 13.765625 C 31.375 13.765625 34.097656 16.113281 33.492188 19.296875 "/>
<path style=" stroke:none;fill-rule:nonzero;fill:rgb(74.119568%,89.408875%,53.329468%);fill-opacity:1;" d="M 37.246094 26.300781 C 35.878906 29.238281 32.234375 29.695312 32.234375 29.695312 C 32.234375 29.695312 30.226562 26.636719 31.609375 23.667969 C 32.992188 20.691406 36.550781 20.414062 36.550781 20.414062 C 36.550781 20.414062 38.609375 23.363281 37.246094 26.300781 "/>
<path style=" stroke:none;fill-rule:nonzero;fill:rgb(16.468811%,40.388489%,21.569824%);fill-opacity:1;" d="M 20.246094 17.230469 C 21.25 19.203125 19.964844 21.363281 19.964844 21.363281 C 19.964844 21.363281 17.476562 21.164062 16.460938 19.167969 C 15.445312 17.167969 16.792969 15.132812 16.792969 15.132812 C 16.792969 15.132812 19.242188 15.257812 20.246094 17.230469 "/>
<g clip-path="url(#clip2)" clip-rule="nonzero">
<path style=" stroke:none;fill-rule:nonzero;fill:rgb(42.749023%,78.039551%,25.878906%);fill-opacity:1;" d="M 12.851562 29.304688 C 16.371094 30.257812 17.585938 34.226562 17.585938 34.226562 C 17.585938 34.226562 14.585938 37.054688 11.023438 36.089844 C 7.460938 35.128906 6.460938 31.21875 6.460938 31.21875 C 6.460938 31.21875 9.332031 28.351562 12.851562 29.304688 "/>
</g>
<path style=" stroke:none;fill-rule:nonzero;fill:rgb(74.119568%,89.408875%,53.329468%);fill-opacity:1;" d="M 19.875 34.726562 C 22.023438 35.25 22.8125 37.640625 22.8125 37.640625 C 22.8125 37.640625 21.035156 39.398438 18.863281 38.863281 C 16.691406 38.332031 16.03125 35.972656 16.03125 35.972656 C 16.03125 35.972656 17.730469 34.199219 19.875 34.726562 "/>
<path style=" stroke:none;fill-rule:nonzero;fill:rgb(28.239441%,60.389709%,22.749329%);fill-opacity:1;" d="M 12.417969 23.054688 C 14.714844 24.871094 14.363281 28.179688 14.363281 28.179688 C 14.363281 28.179688 11.257812 29.320312 8.933594 27.480469 C 6.609375 25.644531 7.105469 22.445312 7.105469 22.445312 C 7.105469 22.445312 10.125 21.238281 12.417969 23.054688 "/>
<path style=" stroke:none;fill-rule:nonzero;fill:rgb(42.749023%,78.039551%,25.878906%);fill-opacity:1;" d="M 26.269531 22.292969 C 26.269531 22.292969 26.539062 22.449219 26.957031 22.757812 C 26.96875 22.699219 26.984375 22.644531 26.992188 22.589844 C 27.597656 19.40625 24.878906 17.054688 24.878906 17.054688 C 24.878906 17.054688 21.496094 18.203125 20.886719 21.425781 C 20.480469 23.5625 21.527344 25.363281 22.28125 26.335938 C 23.808594 23.683594 26.269531 22.292969 26.269531 22.292969 "/>
<path style=" stroke:none;fill-rule:nonzero;fill:rgb(28.239441%,60.389709%,22.749329%);fill-opacity:1;" d="M 21.09375 30.679688 C 21.09375 29.273438 21.4375 28.035156 21.945312 26.972656 C 21.203125 25.992188 20.261719 24.359375 20.269531 22.398438 C 18.40625 21.492188 16.6875 21.363281 16.6875 21.363281 C 16.6875 21.363281 13.671875 25.722656 15.78125 30.101562 C 17.28125 33.214844 20.433594 34.394531 22.132812 34.816406 C 21.523438 33.640625 21.09375 32.253906 21.09375 30.679688 "/>
<path style=" stroke:none;fill-rule:nonzero;fill:rgb(16.468811%,40.388489%,21.569824%);fill-opacity:1;" d="M 41.109375 24.683594 C 37.535156 27.882812 38.445312 33.261719 38.445312 33.261719 C 38.445312 33.261719 43.632812 34.8125 47.25 31.574219 C 50.867188 28.335938 49.738281 23.152344 49.738281 23.152344 C 49.738281 23.152344 44.683594 21.484375 41.109375 24.683594 "/>
<path style=" stroke:none;fill-rule:nonzero;fill:rgb(42.749023%,78.039551%,25.878906%);fill-opacity:1;" d="M 47.851562 15.136719 C 45.886719 17.707031 47.160156 21.15625 47.160156 21.15625 C 47.160156 21.15625 50.792969 21.53125 52.785156 18.925781 C 54.777344 16.324219 53.378906 13.03125 53.378906 13.03125 C 53.378906 13.03125 49.820312 12.5625 47.851562 15.136719 "/>
<path style=" stroke:none;fill-rule:nonzero;fill:rgb(16.468811%,40.388489%,21.569824%);fill-opacity:1;" d="M 40.136719 16.996094 C 38.863281 19.972656 40.949219 23.003906 40.949219 23.003906 C 40.949219 23.003906 44.5625 22.46875 45.851562 19.453125 C 47.144531 16.441406 44.980469 13.59375 44.980469 13.59375 C 44.980469 13.59375 41.414062 14.019531 40.136719 16.996094 "/>
<path style=" stroke:none;fill-rule:nonzero;fill:rgb(42.749023%,78.039551%,25.878906%);fill-opacity:1;" d="M 58.210938 23.660156 C 56.074219 24.226562 55.320312 26.625 55.320312 26.625 C 55.320312 26.625 57.128906 28.351562 59.292969 27.78125 C 61.457031 27.210938 62.074219 24.84375 62.074219 24.84375 C 62.074219 24.84375 60.347656 23.097656 58.210938 23.660156 "/>
<path style=" stroke:none;fill-rule:nonzero;fill:rgb(42.749023%,78.039551%,25.878906%);fill-opacity:1;" d="M 55.535156 38 C 52.484375 36.003906 48.71875 37.738281 48.71875 37.738281 C 48.71875 37.738281 48.609375 41.867188 51.703125 43.886719 C 54.792969 45.910156 58.367188 44.050781 58.367188 44.050781 C 58.367188 44.050781 58.585938 40 55.535156 38 "/>
<g clip-path="url(#clip3)" clip-rule="nonzero">
<path style=" stroke:none;fill-rule:nonzero;fill:rgb(58.039856%,83.139038%,32.548523%);fill-opacity:1;" d="M 59.550781 33.304688 C 56.671875 32.796875 54.441406 35.269531 54.441406 35.269531 C 54.441406 35.269531 55.664062 38.34375 58.578125 38.859375 C 61.492188 39.371094 63.542969 36.871094 63.542969 36.871094 C 63.542969 36.871094 62.433594 33.8125 59.550781 33.304688 "/>
</g>
<path style=" stroke:none;fill-rule:nonzero;fill:rgb(58.039856%,83.139038%,32.548523%);fill-opacity:1;" d="M 50.433594 22.53125 C 50.433594 22.53125 50.136719 22.433594 49.628906 22.324219 C 49.660156 22.277344 49.695312 22.230469 49.730469 22.183594 C 51.695312 19.613281 55.257812 20.082031 55.257812 20.082031 C 55.257812 20.082031 56.65625 23.375 54.664062 25.976562 C 53.34375 27.703125 51.304688 28.121094 50.078125 28.203125 C 51.035156 25.296875 50.433594 22.53125 50.433594 22.53125 "/>
<path style=" stroke:none;fill-rule:nonzero;fill:rgb(28.239441%,60.389709%,22.749329%);fill-opacity:1;" d="M 47.636719 31.988281 C 48.683594 31.050781 49.375 29.96875 49.828125 28.878906 C 51.050781 28.78125 52.894531 28.398438 54.347656 27.085938 C 56.265625 27.875 57.503906 29.074219 57.503906 29.074219 C 57.503906 29.074219 56.269531 34.234375 51.609375 35.570312 C 48.292969 36.523438 45.3125 34.953125 43.867188 33.960938 C 45.148438 33.636719 46.464844 33.035156 47.636719 31.988281 "/>
<path style=" stroke:none;fill-rule:nonzero;fill:rgb(74.119568%,89.408875%,53.329468%);fill-opacity:1;" d="M 27.597656 9.273438 C 28.394531 11.707031 31.210938 12.414062 31.210938 12.414062 C 31.210938 12.414062 33.078125 10.207031 32.273438 7.738281 C 31.46875 5.273438 28.699219 4.71875 28.699219 4.71875 C 28.699219 4.71875 26.800781 6.835938 27.597656 9.273438 "/>
<path style=" stroke:none;fill-rule:nonzero;fill:rgb(42.749023%,78.039551%,25.878906%);fill-opacity:1;" d="M 38.964844 9.367188 C 40.523438 12.203125 44.191406 12.414062 44.191406 12.414062 C 44.191406 12.414062 45.992188 9.230469 44.410156 6.359375 C 42.832031 3.484375 39.261719 3.449219 39.261719 3.449219 C 39.261719 3.449219 37.402344 6.53125 38.964844 9.367188 "/>
<path style=" stroke:none;fill-rule:nonzero;fill:rgb(58.039856%,83.139038%,32.548523%);fill-opacity:1;" d="M 20.695312 46.09375 C 22.800781 43.636719 21.714844 40.121094 21.714844 40.121094 C 21.714844 40.121094 18.109375 39.546875 15.976562 42.035156 C 13.84375 44.519531 15.058594 47.886719 15.058594 47.886719 C 15.058594 47.886719 18.589844 48.550781 20.695312 46.09375 "/>
<path style=" stroke:none;fill-rule:nonzero;fill:rgb(74.119568%,89.408875%,53.329468%);fill-opacity:1;" d="M 45.664062 9.15625 C 45.320312 11.34375 47.214844 13 47.214844 13 C 47.214844 13 49.515625 12.03125 49.863281 9.816406 C 50.210938 7.601562 48.296875 6.082031 48.296875 6.082031 C 48.296875 6.082031 46.007812 6.96875 45.664062 9.15625 "/>
<path style=" stroke:none;fill-rule:nonzero;fill:rgb(74.119568%,89.408875%,53.329468%);fill-opacity:1;" d="M 16.257812 10.433594 C 15.914062 12.621094 17.804688 14.273438 17.804688 14.273438 C 17.804688 14.273438 20.109375 13.308594 20.453125 11.09375 C 20.800781 8.878906 18.886719 7.359375 18.886719 7.359375 C 18.886719 7.359375 16.597656 8.246094 16.257812 10.433594 "/>
<path style=" stroke:none;fill-rule:nonzero;fill:rgb(28.239441%,60.389709%,22.749329%);fill-opacity:1;" d="M 10.503906 11.640625 C 10.160156 13.828125 12.054688 15.480469 12.054688 15.480469 C 12.054688 15.480469 14.355469 14.511719 14.703125 12.300781 C 15.050781 10.082031 13.136719 8.566406 13.136719 8.566406 C 13.136719 8.566406 10.847656 9.453125 10.503906 11.640625 "/>
<path style=" stroke:none;fill-rule:nonzero;fill:rgb(58.039856%,83.139038%,32.548523%);fill-opacity:1;" d="M 32.316406 3.066406 C 31.976562 5.253906 33.867188 6.90625 33.867188 6.90625 C 33.867188 6.90625 36.171875 5.941406 36.515625 3.726562 C 36.863281 1.511719 34.949219 -0.0078125 34.949219 -0.0078125 C 34.949219 -0.0078125 32.660156 0.878906 32.316406 3.066406 "/>
<path style=" stroke:none;fill-rule:nonzero;fill:rgb(58.039856%,83.139038%,32.548523%);fill-opacity:1;" d="M 10.835938 20.320312 C 12.082031 22.148438 14.59375 22.050781 14.59375 22.050781 C 14.59375 22.050781 15.609375 19.765625 14.34375 17.914062 C 13.082031 16.066406 10.652344 16.273438 10.652344 16.273438 C 10.652344 16.273438 9.589844 18.492188 10.835938 20.320312 "/>
<path style=" stroke:none;fill-rule:nonzero;fill:rgb(28.239441%,60.389709%,22.749329%);fill-opacity:1;" d="M 33.164062 13.671875 C 33.953125 17.238281 37.855469 18.636719 37.855469 18.636719 C 37.855469 18.636719 40.808594 15.761719 40.011719 12.152344 C 39.21875 8.539062 35.367188 7.359375 35.367188 7.359375 C 35.367188 7.359375 32.378906 10.101562 33.164062 13.671875 "/>
<path style=" stroke:none;fill-rule:nonzero;fill:rgb(42.749023%,78.039551%,25.878906%);fill-opacity:1;" d="M 21.601562 11.378906 C 19.984375 13.820312 21.347656 16.859375 21.347656 16.859375 C 21.347656 16.859375 24.652344 16.972656 26.289062 14.5 C 27.925781 12.03125 26.464844 9.144531 26.464844 9.144531 C 26.464844 9.144531 23.222656 8.9375 21.601562 11.378906 "/>
<g clip-path="url(#clip4)" clip-rule="nonzero">
<g clip-path="url(#clip5)" clip-rule="nonzero">
<g clip-path="url(#clip6)" clip-rule="nonzero">
<path style=" stroke:none;fill-rule:nonzero;fill:rgb(28.239441%,60.389709%,22.749329%);fill-opacity:1;" d="M 24.015625 57.0625 C 24.925781 58.121094 24.203125 59.492188 24.203125 59.492188 C 24.203125 59.492188 22.300781 60.125 21.230469 58.898438 C 19.707031 57.15625 20.695312 55.472656 20.695312 55.472656 C 20.695312 55.472656 20.824219 55.964844 21.503906 56.113281 C 22.320312 56.289062 23.210938 56.121094 24.015625 57.0625 "/>
</g>
</g>
</g>
<g clip-path="url(#clip7)" clip-rule="nonzero">
<g clip-path="url(#clip8)" clip-rule="nonzero">
<g clip-path="url(#clip9)" clip-rule="nonzero">
<path style=" stroke:none;fill-rule:nonzero;fill:rgb(42.349243%,67.83905%,12.939453%);fill-opacity:1;" d="M 24.453125 60.335938 C 24.453125 60.335938 24.355469 59.371094 23.164062 58.265625 C 22.394531 57.546875 21.902344 57.652344 21.226562 57.070312 C 20.648438 56.578125 20.699219 55.945312 20.699219 55.945312 C 20.699219 55.945312 20.703125 56.480469 21.25 56.960938 C 21.714844 57.367188 22.5 57.285156 23.234375 57.867188 C 24.214844 58.648438 24.757812 60.089844 24.757812 60.089844 L 24.453125 60.335938 "/>
</g>
</g>
</g>
<g clip-path="url(#clip10)" clip-rule="nonzero">
<g clip-path="url(#clip11)" clip-rule="nonzero">
<g clip-path="url(#clip12)" clip-rule="nonzero">
<path style=" stroke:none;fill-rule:nonzero;fill:rgb(42.349243%,67.83905%,12.939453%);fill-opacity:1;" d="M 56.214844 52.988281 C 56.589844 54.332031 55.355469 55.269531 55.355469 55.269531 C 55.355469 55.269531 53.363281 55.039062 52.910156 53.476562 C 52.269531 51.253906 53.875 50.144531 53.875 50.144531 C 53.875 50.144531 53.78125 50.644531 54.335938 51.066406 C 55.003906 51.570312 55.878906 51.792969 56.214844 52.988281 "/>
</g>
</g>
</g>
<g clip-path="url(#clip13)" clip-rule="nonzero">
<g clip-path="url(#clip14)" clip-rule="nonzero">
<g clip-path="url(#clip15)" clip-rule="nonzero">
<path style=" stroke:none;fill-rule:nonzero;fill:rgb(28.239441%,60.389709%,22.749329%);fill-opacity:1;" d="M 55.226562 56.136719 C 55.226562 56.136719 55.542969 55.222656 54.933594 53.71875 C 54.535156 52.742188 54.050781 52.628906 53.679688 51.816406 C 53.363281 51.125 53.679688 50.574219 53.679688 50.574219 C 53.679688 50.574219 53.457031 51.0625 53.746094 51.726562 C 53.996094 52.292969 54.746094 52.550781 55.164062 53.390625 C 55.722656 54.507812 55.605469 56.046875 55.605469 56.046875 L 55.226562 56.136719 "/>
</g>
</g>
</g>
<g clip-path="url(#clip16)" clip-rule="nonzero">
<g clip-path="url(#clip17)" clip-rule="nonzero">
<g clip-path="url(#clip18)" clip-rule="nonzero">
<path style=" stroke:none;fill-rule:nonzero;fill:rgb(42.749023%,78.039551%,25.878906%);fill-opacity:1;" d="M 51.675781 67.027344 C 51.90625 68.402344 50.578125 69.203125 50.578125 69.203125 C 50.578125 69.203125 48.621094 68.761719 48.339844 67.15625 C 47.9375 64.878906 49.652344 63.949219 49.652344 63.949219 C 49.652344 63.949219 49.507812 64.4375 50.015625 64.914062 C 50.625 65.488281 51.472656 65.800781 51.675781 67.027344 "/>
</g>
</g>
</g>
<g clip-path="url(#clip19)" clip-rule="nonzero">
<g clip-path="url(#clip20)" clip-rule="nonzero">
<g clip-path="url(#clip21)" clip-rule="nonzero">
<path style=" stroke:none;fill-rule:nonzero;fill:rgb(42.349243%,67.83905%,12.939453%);fill-opacity:1;" d="M 50.355469 70.050781 C 50.355469 70.050781 50.769531 69.179688 50.324219 67.617188 C 50.035156 66.601562 49.5625 66.4375 49.28125 65.589844 C 49.042969 64.871094 49.414062 64.355469 49.414062 64.355469 C 49.414062 64.355469 49.140625 64.816406 49.359375 65.507812 C 49.546875 66.097656 50.261719 66.433594 50.589844 67.3125 C 51.023438 68.484375 50.742188 70.003906 50.742188 70.003906 L 50.355469 70.050781 "/>
</g>
</g>
</g>
<g clip-path="url(#clip22)" clip-rule="nonzero">
<g clip-path="url(#clip23)" clip-rule="nonzero">
<g clip-path="url(#clip24)" clip-rule="nonzero">
<path style=" stroke:none;fill-rule:nonzero;fill:rgb(58.039856%,83.139038%,32.548523%);fill-opacity:1;" d="M 8.203125 51.359375 C 7.839844 52.707031 6.300781 52.882812 6.300781 52.882812 C 6.300781 52.882812 4.707031 51.667969 5.117188 50.09375 C 5.699219 47.855469 7.644531 47.722656 7.644531 47.722656 C 7.644531 47.722656 7.308594 48.105469 7.570312 48.75 C 7.886719 49.523438 8.527344 50.160156 8.203125 51.359375 "/>
</g>
</g>
</g>
<g clip-path="url(#clip25)" clip-rule="nonzero">
<g clip-path="url(#clip26)" clip-rule="nonzero">
<g clip-path="url(#clip27)" clip-rule="nonzero">
<path style=" stroke:none;fill-rule:nonzero;fill:rgb(42.749023%,78.039551%,25.878906%);fill-opacity:1;" d="M 5.746094 53.566406 C 5.746094 53.566406 6.488281 52.941406 6.730469 51.335938 C 6.886719 50.292969 6.527344 49.949219 6.621094 49.058594 C 6.703125 48.304688 7.257812 47.992188 7.257812 47.992188 C 7.257812 47.992188 6.816406 48.296875 6.726562 49.015625 C 6.652344 49.632812 7.164062 50.234375 7.097656 51.167969 C 7.007812 52.417969 6.121094 53.679688 6.121094 53.679688 L 5.746094 53.566406 "/>
</g>
</g>
</g>
<g clip-path="url(#clip28)" clip-rule="nonzero">
<g clip-path="url(#clip29)" clip-rule="nonzero">
<g clip-path="url(#clip30)" clip-rule="nonzero">
<path style=" stroke:none;fill-rule:nonzero;fill:rgb(74.119568%,89.408875%,53.329468%);fill-opacity:1;" d="M 65.121094 47.675781 C 66.117188 48.65625 65.507812 50.082031 65.507812 50.082031 C 65.507812 50.082031 63.664062 50.871094 62.496094 49.738281 C 60.835938 48.125 61.679688 46.367188 61.679688 46.367188 C 61.679688 46.367188 61.847656 46.847656 62.539062 46.9375 C 63.367188 47.042969 64.238281 46.800781 65.121094 47.675781 "/>
</g>
</g>
</g>
<g clip-path="url(#clip31)" clip-rule="nonzero">
<g clip-path="url(#clip32)" clip-rule="nonzero">
<g clip-path="url(#clip33)" clip-rule="nonzero">
<path style=" stroke:none;fill-rule:nonzero;fill:rgb(58.039856%,83.139038%,32.548523%);fill-opacity:1;" d="M 65.828125 50.898438 C 65.828125 50.898438 65.652344 49.949219 64.375 48.945312 C 63.542969 48.292969 63.066406 48.4375 62.339844 47.914062 C 61.722656 47.472656 61.722656 46.835938 61.722656 46.835938 C 61.722656 46.835938 61.773438 47.371094 62.355469 47.800781 C 62.855469 48.171875 63.628906 48.023438 64.410156 48.542969 C 65.449219 49.238281 66.113281 50.632812 66.113281 50.632812 L 65.828125 50.898438 "/>
</g>
</g>
</g>
</g>
</svg>
